<svg width="12" height="12" viewBox="0 0 12 12" fill="none" xmlns="http://www.w3.org/2000/svg">
<path d="M6 11.999C9.31371 11.999 12 9.3127 12 5.99899C12 2.68528 9.31371 -0.00100708 6 -0.00100708C2.68629 -0.00100708 0 2.68528 0 5.99899C0 9.3127 2.68629 11.999 6 11.999Z" fill="#007AB9"/>
<path d="M9.58494 6.4827V8.95637H8.15078V6.64848C8.15078 6.06899 7.94371 5.67326 7.42444 5.67326C7.02817 5.67326 6.79276 5.93968 6.6888 6.19766C6.65104 6.28986 6.64131 6.41788 6.64131 6.54719V8.95626H5.20703C5.20703 8.95626 5.22629 5.04746 5.20703 4.64285H6.64142V5.2541C6.63853 5.25891 6.63447 5.26362 6.6319 5.26822H6.64142V5.2541C6.83201 4.96083 7.17192 4.54156 7.93398 4.54156C8.87754 4.54156 9.58494 5.15805 9.58494 6.4827ZM3.70666 2.56363C3.21605 2.56363 2.89508 2.88567 2.89508 3.30879C2.89508 3.72292 3.20675 4.05427 3.68784 4.05427H3.69714C4.19737 4.05427 4.5084 3.72292 4.5084 3.30879C4.49888 2.88567 4.19737 2.56363 3.70666 2.56363ZM2.98032 8.95637H4.41407V4.64285H2.98032V8.95637Z" fill="#F1F2F2"/>
</svg>
